<?xml version="1.0" encoding="UTF-8" standalone="no"?>
<!DOCTYPE svg PUBLIC "-//W3C//DTD SVG 1.1//EN"
 "http://www.w3.org/Graphics/SVG/1.1/DTD/svg11.dtd">
<!-- Generated by graphviz version 9.0.0 (20230911.1827)
 -->
<!-- Pages: 1 -->
<svg width="170pt" height="398pt"
 viewBox="0.00 0.00 170.41 398.00" xmlns="http://www.w3.org/2000/svg" xmlns:xlink="http://www.w3.org/1999/xlink">
<g id="graph0" class="graph" transform="scale(1 1) rotate(0) translate(4 394)">
<polygon fill="white" stroke="none" points="-4,4 -4,-394 166.41,-394 166.41,4 -4,4"/>
<!-- 0 -->
<g id="node1" class="node">
<title>0</title>
<ellipse fill="none" stroke="black" cx="71" cy="-372" rx="32.41" ry="18"/>
<text text-anchor="middle" x="71" y="-366.95" font-family="Times,serif" font-size="14.00">s0, s1</text>
</g>
<!-- 1 -->
<g id="node2" class="node">
<title>1</title>
<ellipse fill="none" stroke="black" cx="27" cy="-283.5" rx="27" ry="18"/>
<text text-anchor="middle" x="27" y="-278.45" font-family="Times,serif" font-size="14.00">s1</text>
</g>
<!-- 0&#45;&gt;1 -->
<g id="edge1" class="edge">
<title>0&#45;&gt;1</title>
<path fill="none" stroke="black" d="M62.52,-354.32C56.27,-342.04 47.64,-325.08 40.46,-310.96"/>
<polygon fill="black" stroke="black" points="43.65,-309.51 35.99,-302.18 37.41,-312.68 43.65,-309.51"/>
<text text-anchor="middle" x="56.38" y="-322.7" font-family="Times,serif" font-size="14.00">b</text>
</g>
<!-- 2 -->
<g id="node3" class="node">
<title>2</title>
<ellipse fill="none" stroke="black" cx="106" cy="-195" rx="32.41" ry="18"/>
<text text-anchor="middle" x="106" y="-189.95" font-family="Times,serif" font-size="14.00">s1, s2</text>
</g>
<!-- 0&#45;&gt;2 -->
<g id="edge2" class="edge">
<title>0&#45;&gt;2</title>
<path fill="none" stroke="black" d="M75.53,-353.94C79.17,-339.92 84.27,-319.5 88,-301.5 93.39,-275.52 98.36,-245.71 101.71,-224.41"/>
<polygon fill="black" stroke="black" points="105.14,-225.16 103.21,-214.74 98.22,-224.09 105.14,-225.16"/>
<text text-anchor="middle" x="98" y="-278.45" font-family="Times,serif" font-size="14.00">a</text>
</g>
<!-- 1&#45;&gt;1 -->
<g id="edge3" class="edge">
<title>1&#45;&gt;1</title>
<path fill="none" stroke="black" d="M51.53,-291.67C62.51,-292.45 72,-289.72 72,-283.5 72,-279.61 68.29,-277.09 62.83,-275.93"/>
<polygon fill="black" stroke="black" points="63.22,-272.45 53.04,-275.41 62.84,-279.44 63.22,-272.45"/>
<text text-anchor="middle" x="75.38" y="-278.45" font-family="Times,serif" font-size="14.00">b</text>
</g>
<!-- 1&#45;&gt;2 -->
<g id="edge4" class="edge">
<title>1&#45;&gt;2</title>
<path fill="none" stroke="black" d="M40.4,-267.83C52.32,-254.77 69.99,-235.43 83.99,-220.1"/>
<polygon fill="black" stroke="black" points="86.55,-222.49 90.71,-212.74 81.38,-217.77 86.55,-222.49"/>
<text text-anchor="middle" x="77" y="-234.2" font-family="Times,serif" font-size="14.00">a</text>
</g>
<!-- 2&#45;&gt;2 -->
<g id="edge6" class="edge">
<title>2&#45;&gt;2</title>
<path fill="none" stroke="black" d="M135.26,-203.26C146.79,-203.67 156.41,-200.92 156.41,-195 156.41,-191.21 152.46,-188.72 146.59,-187.52"/>
<polygon fill="black" stroke="black" points="146.99,-184.04 136.77,-186.85 146.51,-191.03 146.99,-184.04"/>
<text text-anchor="middle" x="159.41" y="-189.95" font-family="Times,serif" font-size="14.00">a</text>
</g>
<!-- 3 -->
<g id="node4" class="node">
<title>3</title>
<ellipse fill="none" stroke="black" cx="129" cy="-106.5" rx="32.41" ry="18"/>
<text text-anchor="middle" x="129" y="-101.45" font-family="Times,serif" font-size="14.00">s1, s3</text>
</g>
<!-- 2&#45;&gt;3 -->
<g id="edge5" class="edge">
<title>2&#45;&gt;3</title>
<path fill="none" stroke="black" d="M110.54,-176.91C113.69,-165.06 117.96,-149.02 121.6,-135.34"/>
<polygon fill="black" stroke="black" points="124.89,-136.58 124.08,-126.02 118.12,-134.78 124.89,-136.58"/>
<text text-anchor="middle" x="123.38" y="-145.7" font-family="Times,serif" font-size="14.00">b</text>
</g>
<!-- 3&#45;&gt;2 -->
<g id="edge8" class="edge">
<title>3&#45;&gt;2</title>
<path fill="none" stroke="black" d="M118.22,-123.97C115.02,-129.62 111.88,-136.13 110,-142.5 107.89,-149.64 106.73,-157.56 106.12,-165.01"/>
<polygon fill="black" stroke="black" points="102.62,-164.84 105.63,-174.99 109.62,-165.18 102.62,-164.84"/>
<text text-anchor="middle" x="113" y="-145.7" font-family="Times,serif" font-size="14.00">a</text>
</g>
<!-- 4 -->
<g id="node5" class="node">
<title>4</title>
<ellipse fill="none" stroke="black" cx="73" cy="-18" rx="32.41" ry="18"/>
<text text-anchor="middle" x="73" y="-12.95" font-family="Times,serif" font-size="14.00">s1, s4</text>
</g>
<!-- 3&#45;&gt;4 -->
<g id="edge7" class="edge">
<title>3&#45;&gt;4</title>
<path fill="none" stroke="black" d="M118.47,-89.23C110.38,-76.74 99.07,-59.26 89.75,-44.87"/>
<polygon fill="black" stroke="black" points="92.87,-43.25 84.5,-36.76 87,-47.06 92.87,-43.25"/>
<text text-anchor="middle" x="110.38" y="-57.2" font-family="Times,serif" font-size="14.00">b</text>
</g>
<!-- 4&#45;&gt;1 -->
<g id="edge9" class="edge">
<title>4&#45;&gt;1</title>
<path fill="none" stroke="black" d="M69.97,-36.35C62.21,-80.81 41.55,-199.14 31.99,-253.93"/>
<polygon fill="black" stroke="black" points="28.55,-253.27 30.28,-263.72 35.45,-254.47 28.55,-253.27"/>
<text text-anchor="middle" x="55.38" y="-145.7" font-family="Times,serif" font-size="14.00">b</text>
</g>
<!-- 4&#45;&gt;2 -->
<g id="edge10" class="edge">
<title>4&#45;&gt;2</title>
<path fill="none" stroke="black" d="M73.17,-36.37C73.68,-57.44 75.52,-93.93 82,-124.5 85,-138.65 90.04,-153.89 94.74,-166.48"/>
<polygon fill="black" stroke="black" points="91.46,-167.72 98.33,-175.78 97.99,-165.2 91.46,-167.72"/>
<text text-anchor="middle" x="85" y="-101.45" font-family="Times,serif" font-size="14.00">a</text>
</g>
</g>
</svg>
