<?xml version="1.0" encoding="UTF-8" standalone="no"?>
<!DOCTYPE svg PUBLIC "-//W3C//DTD SVG 1.1//EN"
 "http://www.w3.org/Graphics/SVG/1.1/DTD/svg11.dtd">
<!-- Generated by graphviz version 9.0.0 (20230911.1827)
 -->
<!-- Pages: 1 -->
<svg width="170pt" height="448pt"
 viewBox="0.00 0.00 170.41 447.83" xmlns="http://www.w3.org/2000/svg" xmlns:xlink="http://www.w3.org/1999/xlink">
<g id="graph0" class="graph" transform="scale(1 1) rotate(0) translate(4 443.83)">
<polygon fill="white" stroke="none" points="-4,4 -4,-443.83 166.41,-443.83 166.41,4 -4,4"/>
<!-- 0 -->
<g id="node1" class="node">
<title>0</title>
<polygon fill="none" stroke="black" points="71,-439.83 6.17,-403.08 135.83,-403.08 71,-439.83"/>
<text text-anchor="middle" x="71" y="-410.28" font-family="Times,serif" font-size="14.00">s0, s1</text>
</g>
<!-- 1 -->
<g id="node2" class="node">
<title>1</title>
<ellipse fill="none" stroke="black" cx="27" cy="-320.33" rx="27" ry="18"/>
<text text-anchor="middle" x="27" y="-315.28" font-family="Times,serif" font-size="14.00">s1</text>
</g>
<!-- 0&#45;&gt;1 -->
<g id="edge1" class="edge">
<title>0&#45;&gt;1</title>
<path fill="none" stroke="black" d="M65.6,-402.93C59.19,-389.37 48.27,-366.29 39.68,-348.13"/>
<polygon fill="black" stroke="black" points="42.9,-346.76 35.46,-339.22 36.58,-349.75 42.9,-346.76"/>
<text text-anchor="middle" x="54.38" y="-359.53" font-family="Times,serif" font-size="14.00">b</text>
</g>
<!-- 2 -->
<g id="node3" class="node">
<title>2</title>
<ellipse fill="none" stroke="black" cx="106" cy="-231.83" rx="32.41" ry="18"/>
<text text-anchor="middle" x="106" y="-226.78" font-family="Times,serif" font-size="14.00">s1, s2</text>
</g>
<!-- 0&#45;&gt;2 -->
<g id="edge2" class="edge">
<title>0&#45;&gt;2</title>
<path fill="none" stroke="black" d="M73.78,-402.78C77.3,-387.92 83.48,-361.28 88,-338.33 93.13,-312.3 98.13,-282.49 101.56,-261.21"/>
<polygon fill="black" stroke="black" points="104.98,-261.98 103.1,-251.55 98.07,-260.87 104.98,-261.98"/>
<text text-anchor="middle" x="98" y="-315.28" font-family="Times,serif" font-size="14.00">a</text>
</g>
<!-- 1&#45;&gt;1 -->
<g id="edge3" class="edge">
<title>1&#45;&gt;1</title>
<path fill="none" stroke="black" d="M51.53,-328.5C62.51,-329.27 72,-326.55 72,-320.33 72,-316.44 68.29,-313.92 62.83,-312.76"/>
<polygon fill="black" stroke="black" points="63.22,-309.28 53.04,-312.24 62.84,-316.27 63.22,-309.28"/>
<text text-anchor="middle" x="75.38" y="-315.28" font-family="Times,serif" font-size="14.00">b</text>
</g>
<!-- 1&#45;&gt;2 -->
<g id="edge4" class="edge">
<title>1&#45;&gt;2</title>
<path fill="none" stroke="black" d="M40.4,-304.66C52.32,-291.6 69.99,-272.26 83.99,-256.93"/>
<polygon fill="black" stroke="black" points="86.55,-259.31 90.71,-249.57 81.38,-254.59 86.55,-259.31"/>
<text text-anchor="middle" x="77" y="-271.03" font-family="Times,serif" font-size="14.00">a</text>
</g>
<!-- 2&#45;&gt;2 -->
<g id="edge6" class="edge">
<title>2&#45;&gt;2</title>
<path fill="none" stroke="black" d="M135.26,-240.08C146.79,-240.5 156.41,-237.75 156.41,-231.83 156.41,-228.04 152.46,-225.54 146.59,-224.35"/>
<polygon fill="black" stroke="black" points="146.99,-220.87 136.77,-223.68 146.51,-227.85 146.99,-220.87"/>
<text text-anchor="middle" x="159.41" y="-226.78" font-family="Times,serif" font-size="14.00">a</text>
</g>
<!-- 3 -->
<g id="node4" class="node">
<title>3</title>
<ellipse fill="none" stroke="black" cx="129" cy="-143.33" rx="32.41" ry="18"/>
<text text-anchor="middle" x="129" y="-138.28" font-family="Times,serif" font-size="14.00">s1, s3</text>
</g>
<!-- 2&#45;&gt;3 -->
<g id="edge5" class="edge">
<title>2&#45;&gt;3</title>
<path fill="none" stroke="black" d="M110.54,-213.74C113.69,-201.89 117.96,-185.85 121.6,-172.17"/>
<polygon fill="black" stroke="black" points="124.89,-173.41 124.08,-162.85 118.12,-171.61 124.89,-173.41"/>
<text text-anchor="middle" x="123.38" y="-182.53" font-family="Times,serif" font-size="14.00">b</text>
</g>
<!-- 3&#45;&gt;2 -->
<g id="edge8" class="edge">
<title>3&#45;&gt;2</title>
<path fill="none" stroke="black" d="M118.22,-160.8C115.02,-166.45 111.88,-172.96 110,-179.33 107.89,-186.47 106.73,-194.39 106.12,-201.84"/>
<polygon fill="black" stroke="black" points="102.62,-201.66 105.63,-211.82 109.62,-202.01 102.62,-201.66"/>
<text text-anchor="middle" x="113" y="-182.53" font-family="Times,serif" font-size="14.00">a</text>
</g>
<!-- 4 -->
<g id="node5" class="node">
<title>4</title>
<ellipse fill="none" stroke="black" cx="73" cy="-36.41" rx="32.41" ry="32.41"/>
<ellipse fill="none" stroke="black" cx="73" cy="-36.41" rx="36.41" ry="36.41"/>
<text text-anchor="middle" x="73" y="-31.36" font-family="Times,serif" font-size="14.00">s1, s4</text>
</g>
<!-- 3&#45;&gt;4 -->
<g id="edge7" class="edge">
<title>3&#45;&gt;4</title>
<path fill="none" stroke="black" d="M120.25,-125.94C113.52,-113.34 103.93,-95.36 95.14,-78.89"/>
<polygon fill="black" stroke="black" points="98.31,-77.4 90.51,-70.23 92.14,-80.7 98.31,-77.4"/>
<text text-anchor="middle" x="113.38" y="-94.03" font-family="Times,serif" font-size="14.00">b</text>
</g>
<!-- 4&#45;&gt;1 -->
<g id="edge9" class="edge">
<title>4&#45;&gt;1</title>
<path fill="none" stroke="black" d="M67.27,-72.55C58.05,-129.01 40.13,-238.85 31.66,-290.8"/>
<polygon fill="black" stroke="black" points="28.21,-290.19 30.05,-300.62 35.12,-291.32 28.21,-290.19"/>
<text text-anchor="middle" x="53.38" y="-182.53" font-family="Times,serif" font-size="14.00">b</text>
</g>
<!-- 4&#45;&gt;2 -->
<g id="edge10" class="edge">
<title>4&#45;&gt;2</title>
<path fill="none" stroke="black" d="M73.15,-73.27C73.85,-98.2 75.99,-132.07 82,-161.33 84.91,-175.5 89.94,-190.74 94.65,-203.33"/>
<polygon fill="black" stroke="black" points="91.38,-204.58 98.27,-212.63 97.91,-202.04 91.38,-204.58"/>
<text text-anchor="middle" x="85" y="-138.28" font-family="Times,serif" font-size="14.00">a</text>
</g>
</g>
</svg>
