<?xml version="1.0" encoding="UTF-8" standalone="no"?>
<!DOCTYPE svg PUBLIC "-//W3C//DTD SVG 1.1//EN"
 "http://www.w3.org/Graphics/SVG/1.1/DTD/svg11.dtd">
<!-- Generated by graphviz version 9.0.0 (20230911.1827)
 -->
<!-- Pages: 1 -->
<svg width="279pt" height="789pt"
 viewBox="0.00 0.00 278.57 789.21" xmlns="http://www.w3.org/2000/svg" xmlns:xlink="http://www.w3.org/1999/xlink">
<g id="graph0" class="graph" transform="scale(1 1) rotate(0) translate(4 785.21)">
<polygon fill="white" stroke="none" points="-4,4 -4,-785.21 274.57,-785.21 274.57,4 -4,4"/>
<!-- 0 -->
<g id="node1" class="node">
<title>0</title>
<polygon fill="none" stroke="black" points="174.78,-781.21 134.52,-744.46 215.05,-744.46 174.78,-781.21"/>
<text text-anchor="middle" x="174.78" y="-751.66" font-family="Times,serif" font-size="14.00">q0</text>
</g>
<!-- 1 -->
<g id="node2" class="node">
<title>1</title>
<ellipse fill="none" stroke="black" cx="174.78" cy="-583.92" rx="91.78" ry="91.78"/>
<ellipse fill="none" stroke="black" cx="174.78" cy="-583.92" rx="95.78" ry="95.78"/>
<text text-anchor="middle" x="174.78" y="-578.87" font-family="Times,serif" font-size="14.00">q1, q2, q3, q4, q6, q9</text>
</g>
<!-- 0&#45;&gt;1 -->
<g id="edge1" class="edge">
<title>0&#45;&gt;1</title>
<path fill="none" stroke="black" d="M174.78,-743.97C174.78,-732.16 174.78,-712.68 174.78,-691.34"/>
<polygon fill="black" stroke="black" points="178.28,-691.55 174.78,-681.55 171.28,-691.55 178.28,-691.55"/>
<text text-anchor="middle" x="177.78" y="-700.91" font-family="Times,serif" font-size="14.00">a</text>
</g>
<!-- 2 -->
<g id="node3" class="node">
<title>2</title>
<ellipse fill="none" stroke="black" cx="95.78" cy="-339.85" rx="91.78" ry="91.78"/>
<ellipse fill="none" stroke="black" cx="95.78" cy="-339.85" rx="95.78" ry="95.78"/>
<text text-anchor="middle" x="95.78" y="-334.8" font-family="Times,serif" font-size="14.00">q3, q4, q5, q6, q8, q9</text>
</g>
<!-- 1&#45;&gt;2 -->
<g id="edge2" class="edge">
<title>1&#45;&gt;2</title>
<path fill="none" stroke="black" d="M145.26,-492.44C139.9,-476.03 134.28,-458.81 128.83,-442.11"/>
<polygon fill="black" stroke="black" points="132.18,-441.08 125.75,-432.66 125.52,-443.26 132.18,-441.08"/>
<text text-anchor="middle" x="141.16" y="-456.84" font-family="Times,serif" font-size="14.00">b</text>
</g>
<!-- 3 -->
<g id="node4" class="node">
<title>3</title>
<ellipse fill="none" stroke="black" cx="124.78" cy="-95.78" rx="91.78" ry="91.78"/>
<ellipse fill="none" stroke="black" cx="124.78" cy="-95.78" rx="95.78" ry="95.78"/>
<text text-anchor="middle" x="124.78" y="-90.73" font-family="Times,serif" font-size="14.00">q3, q4, q6, q7, q8, q9</text>
</g>
<!-- 1&#45;&gt;3 -->
<g id="edge3" class="edge">
<title>1&#45;&gt;3</title>
<path fill="none" stroke="black" d="M210.68,-494.6C216.95,-475.46 222.51,-455.12 225.78,-435.64 239.91,-351.68 250.99,-325.39 225.78,-244.07 218.69,-221.19 206.68,-198.7 193.37,-178.46"/>
<polygon fill="black" stroke="black" points="196.32,-176.57 187.81,-170.27 190.53,-180.51 196.32,-176.57"/>
<text text-anchor="middle" x="243.78" y="-334.8" font-family="Times,serif" font-size="14.00">c</text>
</g>
<!-- 2&#45;&gt;2 -->
<g id="edge6" class="edge">
<title>2&#45;&gt;2</title>
<path fill="none" stroke="black" d="M189.96,-359.78C201.79,-356.27 209.57,-349.63 209.57,-339.85 209.57,-333.29 206.06,-328.13 200.16,-324.39"/>
<polygon fill="black" stroke="black" points="201.91,-321.34 191.35,-320.53 199.1,-327.75 201.91,-321.34"/>
<text text-anchor="middle" x="212.94" y="-334.8" font-family="Times,serif" font-size="14.00">b</text>
</g>
<!-- 2&#45;&gt;3 -->
<g id="edge7" class="edge">
<title>2&#45;&gt;3</title>
<path fill="none" stroke="black" d="M96.7,-243.73C97.41,-232.2 98.4,-220.6 99.78,-209.57 100.16,-206.59 100.57,-203.58 101.02,-200.54"/>
<polygon fill="black" stroke="black" points="104.43,-201.4 102.56,-190.97 97.52,-200.29 104.43,-201.4"/>
<text text-anchor="middle" x="102.78" y="-212.77" font-family="Times,serif" font-size="14.00">c</text>
</g>
<!-- 3&#45;&gt;2 -->
<g id="edge4" class="edge">
<title>3&#45;&gt;2</title>
<path fill="none" stroke="black" d="M113.47,-191.21C111.82,-205.04 110.1,-219.36 108.42,-233.39"/>
<polygon fill="black" stroke="black" points="104.97,-232.72 107.26,-243.07 111.92,-233.55 104.97,-232.72"/>
<text text-anchor="middle" x="115.16" y="-212.77" font-family="Times,serif" font-size="14.00">b</text>
</g>
<!-- 3&#45;&gt;3 -->
<g id="edge5" class="edge">
<title>3&#45;&gt;3</title>
<path fill="none" stroke="black" d="M218.96,-115.71C230.79,-112.2 238.57,-105.56 238.57,-95.78 238.57,-89.22 235.06,-84.07 229.16,-80.33"/>
<polygon fill="black" stroke="black" points="230.91,-77.27 220.35,-76.47 228.1,-83.68 230.91,-77.27"/>
<text text-anchor="middle" x="241.57" y="-90.73" font-family="Times,serif" font-size="14.00">c</text>
</g>
</g>
</svg>
