<?xml version="1.0" encoding="UTF-8" standalone="no"?>
<!DOCTYPE svg PUBLIC "-//W3C//DTD SVG 1.1//EN"
 "http://www.w3.org/Graphics/SVG/1.1/DTD/svg11.dtd">
<!-- Generated by graphviz version 9.0.0 (20230911.1827)
 -->
<!-- Pages: 1 -->
<svg width="269pt" height="310pt"
 viewBox="0.00 0.00 268.57 309.50" xmlns="http://www.w3.org/2000/svg" xmlns:xlink="http://www.w3.org/1999/xlink">
<g id="graph0" class="graph" transform="scale(1 1) rotate(0) translate(4 305.5)">
<polygon fill="white" stroke="none" points="-4,4 -4,-305.5 264.57,-305.5 264.57,4 -4,4"/>
<!-- 0 -->
<g id="node1" class="node">
<title>0</title>
<ellipse fill="none" stroke="black" cx="168.78" cy="-283.5" rx="27" ry="18"/>
<text text-anchor="middle" x="168.78" y="-278.45" font-family="Times,serif" font-size="14.00">q0</text>
</g>
<!-- 1 -->
<g id="node2" class="node">
<title>1</title>
<ellipse fill="none" stroke="black" cx="168.78" cy="-195" rx="91.78" ry="18"/>
<text text-anchor="middle" x="168.78" y="-189.95" font-family="Times,serif" font-size="14.00">q1, q2, q3, q4, q6, q9</text>
</g>
<!-- 0&#45;&gt;1 -->
<g id="edge1" class="edge">
<title>0&#45;&gt;1</title>
<path fill="none" stroke="black" d="M168.78,-265.41C168.78,-253.76 168.78,-238.05 168.78,-224.52"/>
<polygon fill="black" stroke="black" points="172.28,-224.86 168.78,-214.86 165.28,-224.86 172.28,-224.86"/>
<text text-anchor="middle" x="171.78" y="-234.2" font-family="Times,serif" font-size="14.00">a</text>
</g>
<!-- 2 -->
<g id="node3" class="node">
<title>2</title>
<ellipse fill="none" stroke="black" cx="91.78" cy="-106.5" rx="91.78" ry="18"/>
<text text-anchor="middle" x="91.78" y="-101.45" font-family="Times,serif" font-size="14.00">q3, q4, q5, q6, q8, q9</text>
</g>
<!-- 1&#45;&gt;2 -->
<g id="edge2" class="edge">
<title>1&#45;&gt;2</title>
<path fill="none" stroke="black" d="M153.57,-176.91C142.39,-164.35 127.02,-147.08 114.4,-132.91"/>
<polygon fill="black" stroke="black" points="117.24,-130.83 107.97,-125.68 112.01,-135.48 117.24,-130.83"/>
<text text-anchor="middle" x="141.16" y="-145.7" font-family="Times,serif" font-size="14.00">b</text>
</g>
<!-- 3 -->
<g id="node4" class="node">
<title>3</title>
<ellipse fill="none" stroke="black" cx="120.78" cy="-18" rx="91.78" ry="18"/>
<text text-anchor="middle" x="120.78" y="-12.95" font-family="Times,serif" font-size="14.00">q3, q4, q6, q7, q8, q9</text>
</g>
<!-- 1&#45;&gt;3 -->
<g id="edge3" class="edge">
<title>1&#45;&gt;3</title>
<path fill="none" stroke="black" d="M186.62,-176.99C206.4,-155.97 233.56,-119.22 217.78,-88.5 207.06,-67.63 186.84,-51.62 167.63,-40.26"/>
<polygon fill="black" stroke="black" points="169.49,-37.29 159.05,-35.48 166.08,-43.4 169.49,-37.29"/>
<text text-anchor="middle" x="224.78" y="-101.45" font-family="Times,serif" font-size="14.00">c</text>
</g>
<!-- 2&#45;&gt;2 -->
<g id="edge4" class="edge">
<title>2&#45;&gt;2</title>
<path fill="none" stroke="black" d="M175.08,-114.37C190.62,-113.4 201.57,-110.78 201.57,-106.5 201.57,-103.36 195.67,-101.11 186.37,-99.75"/>
<polygon fill="black" stroke="black" points="186.88,-96.29 176.59,-98.78 186.19,-103.25 186.88,-96.29"/>
<text text-anchor="middle" x="204.94" y="-101.45" font-family="Times,serif" font-size="14.00">b</text>
</g>
<!-- 2&#45;&gt;3 -->
<g id="edge5" class="edge">
<title>2&#45;&gt;3</title>
<path fill="none" stroke="black" d="M90.84,-88.32C90.83,-78.07 91.8,-64.96 95.78,-54 96.83,-51.14 98.17,-48.3 99.69,-45.55"/>
<polygon fill="black" stroke="black" points="102.49,-47.67 104.96,-37.37 96.6,-43.88 102.49,-47.67"/>
<text text-anchor="middle" x="98.78" y="-57.2" font-family="Times,serif" font-size="14.00">c</text>
</g>
<!-- 3&#45;&gt;2 -->
<g id="edge6" class="edge">
<title>3&#45;&gt;2</title>
<path fill="none" stroke="black" d="M114.97,-36.35C111,-48.18 105.66,-64.11 101.11,-77.69"/>
<polygon fill="black" stroke="black" points="97.86,-76.38 97.99,-86.98 104.49,-78.61 97.86,-76.38"/>
<text text-anchor="middle" x="113.16" y="-57.2" font-family="Times,serif" font-size="14.00">b</text>
</g>
<!-- 3&#45;&gt;3 -->
<g id="edge7" class="edge">
<title>3&#45;&gt;3</title>
<path fill="none" stroke="black" d="M204.08,-25.87C219.62,-24.9 230.57,-22.28 230.57,-18 230.57,-14.86 224.67,-12.61 215.37,-11.25"/>
<polygon fill="black" stroke="black" points="215.88,-7.79 205.59,-10.28 215.19,-14.75 215.88,-7.79"/>
<text text-anchor="middle" x="233.57" y="-12.95" font-family="Times,serif" font-size="14.00">c</text>
</g>
</g>
</svg>
