<?xml version="1.0" encoding="UTF-8" standalone="no"?>
<!DOCTYPE svg PUBLIC "-//W3C//DTD SVG 1.1//EN"
 "http://www.w3.org/Graphics/SVG/1.1/DTD/svg11.dtd">
<!-- Generated by graphviz version 9.0.0 (20230911.1827)
 -->
<!-- Pages: 1 -->
<svg width="111pt" height="398pt"
 viewBox="0.00 0.00 110.75 398.00" xmlns="http://www.w3.org/2000/svg" xmlns:xlink="http://www.w3.org/1999/xlink">
<g id="graph0" class="graph" transform="scale(1 1) rotate(0) translate(4 394)">
<polygon fill="white" stroke="none" points="-4,4 -4,-394 106.75,-394 106.75,4 -4,4"/>
<!-- 0 -->
<g id="node1" class="node">
<title>0</title>
<ellipse fill="none" stroke="black" cx="27" cy="-372" rx="27" ry="18"/>
<text text-anchor="middle" x="27" y="-366.95" font-family="Times,serif" font-size="14.00">s0</text>
</g>
<!-- 1 -->
<g id="node2" class="node">
<title>1</title>
<ellipse fill="none" stroke="black" cx="27" cy="-283.5" rx="27" ry="18"/>
<text text-anchor="middle" x="27" y="-278.45" font-family="Times,serif" font-size="14.00">s1</text>
</g>
<!-- 0&#45;&gt;1 -->
<g id="edge1" class="edge">
<title>0&#45;&gt;1</title>
<path fill="none" stroke="black" d="M27,-353.91C27,-342.26 27,-326.55 27,-313.02"/>
<polygon fill="black" stroke="black" points="30.5,-313.36 27,-303.36 23.5,-313.36 30.5,-313.36"/>
<text text-anchor="middle" x="30" y="-322.7" font-family="Times,serif" font-size="14.00">ε</text>
</g>
<!-- 1&#45;&gt;1 -->
<g id="edge2" class="edge">
<title>1&#45;&gt;1</title>
<path fill="none" stroke="black" d="M53.79,-287.64C63.78,-287.78 72,-286.4 72,-283.5 72,-281.83 69.25,-280.66 65.01,-280"/>
<polygon fill="black" stroke="black" points="65.49,-276.52 55.31,-279.45 65.09,-283.51 65.49,-276.52"/>
<text text-anchor="middle" x="75" y="-278.45" font-family="Times,serif" font-size="14.00">a</text>
</g>
<!-- 1&#45;&gt;1 -->
<g id="edge4" class="edge">
<title>1&#45;&gt;1</title>
<path fill="none" stroke="black" d="M52.23,-290.82C71.04,-293.37 90,-290.93 90,-283.5 90,-277.58 77.96,-274.83 63.55,-275.24"/>
<polygon fill="black" stroke="black" points="63.41,-271.74 53.74,-276.06 63.99,-278.72 63.41,-271.74"/>
<text text-anchor="middle" x="93.38" y="-278.45" font-family="Times,serif" font-size="14.00">b</text>
</g>
<!-- 2 -->
<g id="node3" class="node">
<title>2</title>
<ellipse fill="none" stroke="black" cx="27" cy="-195" rx="27" ry="18"/>
<text text-anchor="middle" x="27" y="-189.95" font-family="Times,serif" font-size="14.00">s2</text>
</g>
<!-- 1&#45;&gt;2 -->
<g id="edge3" class="edge">
<title>1&#45;&gt;2</title>
<path fill="none" stroke="black" d="M27,-265.41C27,-253.76 27,-238.05 27,-224.52"/>
<polygon fill="black" stroke="black" points="30.5,-224.86 27,-214.86 23.5,-224.86 30.5,-224.86"/>
<text text-anchor="middle" x="30" y="-234.2" font-family="Times,serif" font-size="14.00">a</text>
</g>
<!-- 3 -->
<g id="node4" class="node">
<title>3</title>
<ellipse fill="none" stroke="black" cx="27" cy="-106.5" rx="27" ry="18"/>
<text text-anchor="middle" x="27" y="-101.45" font-family="Times,serif" font-size="14.00">s3</text>
</g>
<!-- 2&#45;&gt;3 -->
<g id="edge5" class="edge">
<title>2&#45;&gt;3</title>
<path fill="none" stroke="black" d="M27,-176.91C27,-165.26 27,-149.55 27,-136.02"/>
<polygon fill="black" stroke="black" points="30.5,-136.36 27,-126.36 23.5,-136.36 30.5,-136.36"/>
<text text-anchor="middle" x="30.38" y="-145.7" font-family="Times,serif" font-size="14.00">b</text>
</g>
<!-- 4 -->
<g id="node5" class="node">
<title>4</title>
<ellipse fill="none" stroke="black" cx="27" cy="-18" rx="27" ry="18"/>
<text text-anchor="middle" x="27" y="-12.95" font-family="Times,serif" font-size="14.00">s4</text>
</g>
<!-- 3&#45;&gt;4 -->
<g id="edge6" class="edge">
<title>3&#45;&gt;4</title>
<path fill="none" stroke="black" d="M27,-88.41C27,-76.76 27,-61.05 27,-47.52"/>
<polygon fill="black" stroke="black" points="30.5,-47.86 27,-37.86 23.5,-47.86 30.5,-47.86"/>
<text text-anchor="middle" x="30.38" y="-57.2" font-family="Times,serif" font-size="14.00">b</text>
</g>
</g>
</svg>
