<?xml version="1.0" encoding="UTF-8" standalone="no"?>
<!DOCTYPE svg PUBLIC "-//W3C//DTD SVG 1.1//EN"
 "http://www.w3.org/Graphics/SVG/1.1/DTD/svg11.dtd">
<!-- Generated by graphviz version 9.0.0 (20230911.1827)
 -->
<!-- Pages: 1 -->
<svg width="122pt" height="421pt"
 viewBox="0.00 0.00 121.97 421.22" xmlns="http://www.w3.org/2000/svg" xmlns:xlink="http://www.w3.org/1999/xlink">
<g id="graph0" class="graph" transform="scale(1 1) rotate(0) translate(4 417.22)">
<polygon fill="white" stroke="none" points="-4,4 -4,-417.22 117.97,-417.22 117.97,4 -4,4"/>
<!-- 0 -->
<g id="node1" class="node">
<title>0</title>
<polygon fill="none" stroke="black" points="38.22,-413.22 0,-376.47 76.43,-376.47 38.22,-413.22"/>
<text text-anchor="middle" x="38.22" y="-383.67" font-family="Times,serif" font-size="14.00">s0</text>
</g>
<!-- 1 -->
<g id="node2" class="node">
<title>1</title>
<ellipse fill="none" stroke="black" cx="38.22" cy="-293.72" rx="27" ry="18"/>
<text text-anchor="middle" x="38.22" y="-288.67" font-family="Times,serif" font-size="14.00">s1</text>
</g>
<!-- 0&#45;&gt;1 -->
<g id="edge1" class="edge">
<title>0&#45;&gt;1</title>
<path fill="none" stroke="black" d="M38.22,-376.31C38.22,-363.16 38.22,-341.07 38.22,-323.19"/>
<polygon fill="black" stroke="black" points="41.72,-323.42 38.22,-313.42 34.72,-323.42 41.72,-323.42"/>
<text text-anchor="middle" x="41.22" y="-332.92" font-family="Times,serif" font-size="14.00">ε</text>
</g>
<!-- 1&#45;&gt;1 -->
<g id="edge2" class="edge">
<title>1&#45;&gt;1</title>
<path fill="none" stroke="black" d="M65.01,-297.85C75,-297.99 83.22,-296.61 83.22,-293.72 83.22,-292.04 80.47,-290.87 76.22,-290.21"/>
<polygon fill="black" stroke="black" points="76.7,-286.74 66.52,-289.66 76.31,-293.72 76.7,-286.74"/>
<text text-anchor="middle" x="86.22" y="-288.67" font-family="Times,serif" font-size="14.00">a</text>
</g>
<!-- 1&#45;&gt;1 -->
<g id="edge4" class="edge">
<title>1&#45;&gt;1</title>
<path fill="none" stroke="black" d="M63.44,-301.03C82.26,-303.59 101.22,-301.15 101.22,-293.72 101.22,-287.79 89.18,-285.04 74.77,-285.46"/>
<polygon fill="black" stroke="black" points="74.63,-281.96 64.95,-286.27 75.21,-288.93 74.63,-281.96"/>
<text text-anchor="middle" x="104.59" y="-288.67" font-family="Times,serif" font-size="14.00">b</text>
</g>
<!-- 2 -->
<g id="node3" class="node">
<title>2</title>
<ellipse fill="none" stroke="black" cx="38.22" cy="-205.22" rx="27" ry="18"/>
<text text-anchor="middle" x="38.22" y="-200.17" font-family="Times,serif" font-size="14.00">s2</text>
</g>
<!-- 1&#45;&gt;2 -->
<g id="edge3" class="edge">
<title>1&#45;&gt;2</title>
<path fill="none" stroke="black" d="M38.22,-275.63C38.22,-263.97 38.22,-248.26 38.22,-234.73"/>
<polygon fill="black" stroke="black" points="41.72,-235.08 38.22,-225.08 34.72,-235.08 41.72,-235.08"/>
<text text-anchor="middle" x="41.22" y="-244.42" font-family="Times,serif" font-size="14.00">a</text>
</g>
<!-- 3 -->
<g id="node4" class="node">
<title>3</title>
<ellipse fill="none" stroke="black" cx="38.22" cy="-116.72" rx="27" ry="18"/>
<text text-anchor="middle" x="38.22" y="-111.67" font-family="Times,serif" font-size="14.00">s3</text>
</g>
<!-- 2&#45;&gt;3 -->
<g id="edge5" class="edge">
<title>2&#45;&gt;3</title>
<path fill="none" stroke="black" d="M38.22,-187.13C38.22,-175.47 38.22,-159.76 38.22,-146.23"/>
<polygon fill="black" stroke="black" points="41.72,-146.58 38.22,-136.58 34.72,-146.58 41.72,-146.58"/>
<text text-anchor="middle" x="41.59" y="-155.92" font-family="Times,serif" font-size="14.00">b</text>
</g>
<!-- 4 -->
<g id="node5" class="node">
<title>4</title>
<ellipse fill="none" stroke="black" cx="38.22" cy="-23.11" rx="19.11" ry="19.11"/>
<ellipse fill="none" stroke="black" cx="38.22" cy="-23.11" rx="23.11" ry="23.11"/>
<text text-anchor="middle" x="38.22" y="-18.06" font-family="Times,serif" font-size="14.00">s4</text>
</g>
<!-- 3&#45;&gt;4 -->
<g id="edge6" class="edge">
<title>3&#45;&gt;4</title>
<path fill="none" stroke="black" d="M38.22,-98.48C38.22,-86.98 38.22,-71.48 38.22,-57.61"/>
<polygon fill="black" stroke="black" points="41.72,-57.98 38.22,-47.98 34.72,-57.98 41.72,-57.98"/>
<text text-anchor="middle" x="41.59" y="-67.42" font-family="Times,serif" font-size="14.00">b</text>
</g>
</g>
</svg>
