<?xml version="1.0" encoding="UTF-8" standalone="no"?>
<!DOCTYPE svg PUBLIC "-//W3C//DTD SVG 1.1//EN"
 "http://www.w3.org/Graphics/SVG/1.1/DTD/svg11.dtd">
<!-- Generated by graphviz version 9.0.0 (20230911.1827)
 -->
<!-- Pages: 1 -->
<svg width="212pt" height="689pt"
 viewBox="0.00 0.00 212.26 688.76" xmlns="http://www.w3.org/2000/svg" xmlns:xlink="http://www.w3.org/1999/xlink">
<g id="graph0" class="graph" transform="scale(1 1) rotate(0) translate(4 684.76)">
<polygon fill="white" stroke="none" points="-4,4 -4,-684.76 208.26,-684.76 208.26,4 -4,4"/>
<!-- 0 -->
<g id="node1" class="node">
<title>0</title>
<polygon fill="none" stroke="black" points="164,-680.76 123.74,-644.01 204.26,-644.01 164,-680.76"/>
<text text-anchor="middle" x="164" y="-651.21" font-family="Times,serif" font-size="14.00">q0</text>
</g>
<!-- 1 -->
<g id="node2" class="node">
<title>1</title>
<ellipse fill="none" stroke="black" cx="164" cy="-561.26" rx="27" ry="18"/>
<text text-anchor="middle" x="164" y="-556.21" font-family="Times,serif" font-size="14.00">q1</text>
</g>
<!-- 0&#45;&gt;1 -->
<g id="edge1" class="edge">
<title>0&#45;&gt;1</title>
<path fill="none" stroke="black" d="M164,-643.86C164,-630.71 164,-608.62 164,-590.73"/>
<polygon fill="black" stroke="black" points="167.5,-590.97 164,-580.97 160.5,-590.97 167.5,-590.97"/>
<text text-anchor="middle" x="167" y="-600.46" font-family="Times,serif" font-size="14.00">a</text>
</g>
<!-- 2 -->
<g id="node3" class="node">
<title>2</title>
<ellipse fill="none" stroke="black" cx="164" cy="-472.76" rx="27" ry="18"/>
<text text-anchor="middle" x="164" y="-467.71" font-family="Times,serif" font-size="14.00">q2</text>
</g>
<!-- 1&#45;&gt;2 -->
<g id="edge2" class="edge">
<title>1&#45;&gt;2</title>
<path fill="none" stroke="black" d="M164,-543.17C164,-531.52 164,-515.81 164,-502.28"/>
<polygon fill="black" stroke="black" points="167.5,-502.63 164,-492.63 160.5,-502.63 167.5,-502.63"/>
<text text-anchor="middle" x="167" y="-511.96" font-family="Times,serif" font-size="14.00">ε</text>
</g>
<!-- 3 -->
<g id="node4" class="node">
<title>3</title>
<ellipse fill="none" stroke="black" cx="135" cy="-384.26" rx="27" ry="18"/>
<text text-anchor="middle" x="135" y="-379.21" font-family="Times,serif" font-size="14.00">q3</text>
</g>
<!-- 2&#45;&gt;3 -->
<g id="edge3" class="edge">
<title>2&#45;&gt;3</title>
<path fill="none" stroke="black" d="M158.27,-454.67C154.3,-442.83 148.92,-426.78 144.33,-413.11"/>
<polygon fill="black" stroke="black" points="147.7,-412.12 141.2,-403.75 141.06,-414.35 147.7,-412.12"/>
<text text-anchor="middle" x="156" y="-423.46" font-family="Times,serif" font-size="14.00">ε</text>
</g>
<!-- 4 -->
<g id="node5" class="node">
<title>4</title>
<ellipse fill="none" stroke="black" cx="164" cy="-24.13" rx="20.13" ry="20.13"/>
<ellipse fill="none" stroke="black" cx="164" cy="-24.13" rx="24.13" ry="24.13"/>
<text text-anchor="middle" x="164" y="-19.08" font-family="Times,serif" font-size="14.00">q9</text>
</g>
<!-- 2&#45;&gt;4 -->
<g id="edge4" class="edge">
<title>2&#45;&gt;4</title>
<path fill="none" stroke="black" d="M172.71,-455.37C180.93,-438.34 192,-410.68 192,-385.26 192,-385.26 192,-385.26 192,-117.76 192,-96.75 185.32,-74.17 178.48,-56.56"/>
<polygon fill="black" stroke="black" points="181.88,-55.61 174.84,-47.69 175.41,-58.27 181.88,-55.61"/>
<text text-anchor="middle" x="195" y="-246.46" font-family="Times,serif" font-size="14.00">ε</text>
</g>
<!-- 5 -->
<g id="node6" class="node">
<title>5</title>
<ellipse fill="none" stroke="black" cx="27" cy="-295.76" rx="27" ry="18"/>
<text text-anchor="middle" x="27" y="-290.71" font-family="Times,serif" font-size="14.00">q4</text>
</g>
<!-- 3&#45;&gt;5 -->
<g id="edge5" class="edge">
<title>3&#45;&gt;5</title>
<path fill="none" stroke="black" d="M118.12,-369.75C100.53,-355.65 72.74,-333.4 52.48,-317.17"/>
<polygon fill="black" stroke="black" points="54.93,-314.65 44.94,-311.13 50.56,-320.11 54.93,-314.65"/>
<text text-anchor="middle" x="94" y="-334.96" font-family="Times,serif" font-size="14.00">ε</text>
</g>
<!-- 6 -->
<g id="node7" class="node">
<title>6</title>
<ellipse fill="none" stroke="black" cx="99" cy="-295.76" rx="27" ry="18"/>
<text text-anchor="middle" x="99" y="-290.71" font-family="Times,serif" font-size="14.00">q6</text>
</g>
<!-- 3&#45;&gt;6 -->
<g id="edge6" class="edge">
<title>3&#45;&gt;6</title>
<path fill="none" stroke="black" d="M128.06,-366.58C123.03,-354.5 116.12,-337.89 110.3,-323.91"/>
<polygon fill="black" stroke="black" points="113.58,-322.67 106.5,-314.79 107.11,-325.36 113.58,-322.67"/>
<text text-anchor="middle" x="124" y="-334.96" font-family="Times,serif" font-size="14.00">ε</text>
</g>
<!-- 7 -->
<g id="node8" class="node">
<title>7</title>
<ellipse fill="none" stroke="black" cx="27" cy="-207.26" rx="27" ry="18"/>
<text text-anchor="middle" x="27" y="-202.21" font-family="Times,serif" font-size="14.00">q5</text>
</g>
<!-- 5&#45;&gt;7 -->
<g id="edge7" class="edge">
<title>5&#45;&gt;7</title>
<path fill="none" stroke="black" d="M27,-277.67C27,-266.02 27,-250.31 27,-236.78"/>
<polygon fill="black" stroke="black" points="30.5,-237.13 27,-227.13 23.5,-237.13 30.5,-237.13"/>
<text text-anchor="middle" x="30.38" y="-246.46" font-family="Times,serif" font-size="14.00">b</text>
</g>
<!-- 8 -->
<g id="node9" class="node">
<title>8</title>
<ellipse fill="none" stroke="black" cx="99" cy="-207.26" rx="27" ry="18"/>
<text text-anchor="middle" x="99" y="-202.21" font-family="Times,serif" font-size="14.00">q7</text>
</g>
<!-- 6&#45;&gt;8 -->
<g id="edge8" class="edge">
<title>6&#45;&gt;8</title>
<path fill="none" stroke="black" d="M99,-277.67C99,-266.02 99,-250.31 99,-236.78"/>
<polygon fill="black" stroke="black" points="102.5,-237.13 99,-227.13 95.5,-237.13 102.5,-237.13"/>
<text text-anchor="middle" x="102" y="-246.46" font-family="Times,serif" font-size="14.00">c</text>
</g>
<!-- 9 -->
<g id="node10" class="node">
<title>9</title>
<ellipse fill="none" stroke="black" cx="127" cy="-118.76" rx="27" ry="18"/>
<text text-anchor="middle" x="127" y="-113.71" font-family="Times,serif" font-size="14.00">q8</text>
</g>
<!-- 7&#45;&gt;9 -->
<g id="edge9" class="edge">
<title>7&#45;&gt;9</title>
<path fill="none" stroke="black" d="M43.07,-192.36C59.1,-178.49 83.96,-156.99 102.46,-140.99"/>
<polygon fill="black" stroke="black" points="104.56,-143.8 109.83,-134.62 99.98,-138.51 104.56,-143.8"/>
<text text-anchor="middle" x="89" y="-157.96" font-family="Times,serif" font-size="14.00">ε</text>
</g>
<!-- 8&#45;&gt;9 -->
<g id="edge10" class="edge">
<title>8&#45;&gt;9</title>
<path fill="none" stroke="black" d="M104.53,-189.17C108.37,-177.33 113.56,-161.28 117.99,-147.61"/>
<polygon fill="black" stroke="black" points="121.26,-148.85 121.01,-138.26 114.6,-146.69 121.26,-148.85"/>
<text text-anchor="middle" x="119" y="-157.96" font-family="Times,serif" font-size="14.00">ε</text>
</g>
<!-- 9&#45;&gt;3 -->
<g id="edge11" class="edge">
<title>9&#45;&gt;3</title>
<path fill="none" stroke="black" d="M129.56,-137.14C131.49,-151.17 133.98,-171.44 135,-189.26 138.37,-247.97 137.14,-316.84 136.02,-354.7"/>
<polygon fill="black" stroke="black" points="132.53,-354.23 135.72,-364.34 139.53,-354.46 132.53,-354.23"/>
<text text-anchor="middle" x="141" y="-246.46" font-family="Times,serif" font-size="14.00">ε</text>
</g>
<!-- 9&#45;&gt;4 -->
<g id="edge12" class="edge">
<title>9&#45;&gt;4</title>
<path fill="none" stroke="black" d="M133.61,-101.2C138.47,-89.06 145.21,-72.18 151.11,-57.41"/>
<polygon fill="black" stroke="black" points="154.2,-59.11 154.65,-48.53 147.69,-56.52 154.2,-59.11"/>
<text text-anchor="middle" x="150" y="-69.46" font-family="Times,serif" font-size="14.00">ε</text>
</g>
</g>
</svg>
