<?xml version="1.0" encoding="UTF-8" standalone="no"?>
<!DOCTYPE svg PUBLIC "-//W3C//DTD SVG 1.1//EN"
 "http://www.w3.org/Graphics/SVG/1.1/DTD/svg11.dtd">
<!-- Generated by graphviz version 9.0.0 (20230911.1827)
 -->
<!-- Pages: 1 -->
<svg width="206pt" height="664pt"
 viewBox="0.00 0.00 206.00 663.50" xmlns="http://www.w3.org/2000/svg" xmlns:xlink="http://www.w3.org/1999/xlink">
<g id="graph0" class="graph" transform="scale(1 1) rotate(0) translate(4 659.5)">
<polygon fill="white" stroke="none" points="-4,4 -4,-659.5 202,-659.5 202,4 -4,4"/>
<!-- 0 -->
<g id="node1" class="node">
<title>0</title>
<ellipse fill="none" stroke="black" cx="164" cy="-637.5" rx="27" ry="18"/>
<text text-anchor="middle" x="164" y="-632.45" font-family="Times,serif" font-size="14.00">q0</text>
</g>
<!-- 1 -->
<g id="node2" class="node">
<title>1</title>
<ellipse fill="none" stroke="black" cx="164" cy="-549" rx="27" ry="18"/>
<text text-anchor="middle" x="164" y="-543.95" font-family="Times,serif" font-size="14.00">q1</text>
</g>
<!-- 0&#45;&gt;1 -->
<g id="edge1" class="edge">
<title>0&#45;&gt;1</title>
<path fill="none" stroke="black" d="M164,-619.41C164,-607.76 164,-592.05 164,-578.52"/>
<polygon fill="black" stroke="black" points="167.5,-578.86 164,-568.86 160.5,-578.86 167.5,-578.86"/>
<text text-anchor="middle" x="167" y="-588.2" font-family="Times,serif" font-size="14.00">a</text>
</g>
<!-- 2 -->
<g id="node3" class="node">
<title>2</title>
<ellipse fill="none" stroke="black" cx="164" cy="-460.5" rx="27" ry="18"/>
<text text-anchor="middle" x="164" y="-455.45" font-family="Times,serif" font-size="14.00">q2</text>
</g>
<!-- 1&#45;&gt;2 -->
<g id="edge2" class="edge">
<title>1&#45;&gt;2</title>
<path fill="none" stroke="black" d="M164,-530.91C164,-519.26 164,-503.55 164,-490.02"/>
<polygon fill="black" stroke="black" points="167.5,-490.36 164,-480.36 160.5,-490.36 167.5,-490.36"/>
<text text-anchor="middle" x="167" y="-499.7" font-family="Times,serif" font-size="14.00">ε</text>
</g>
<!-- 3 -->
<g id="node4" class="node">
<title>3</title>
<ellipse fill="none" stroke="black" cx="135" cy="-372" rx="27" ry="18"/>
<text text-anchor="middle" x="135" y="-366.95" font-family="Times,serif" font-size="14.00">q3</text>
</g>
<!-- 2&#45;&gt;3 -->
<g id="edge3" class="edge">
<title>2&#45;&gt;3</title>
<path fill="none" stroke="black" d="M158.27,-442.41C154.3,-430.56 148.92,-414.52 144.33,-400.84"/>
<polygon fill="black" stroke="black" points="147.7,-399.86 141.2,-391.49 141.06,-402.08 147.7,-399.86"/>
<text text-anchor="middle" x="156" y="-411.2" font-family="Times,serif" font-size="14.00">ε</text>
</g>
<!-- 4 -->
<g id="node5" class="node">
<title>4</title>
<ellipse fill="none" stroke="black" cx="164" cy="-18" rx="27" ry="18"/>
<text text-anchor="middle" x="164" y="-12.95" font-family="Times,serif" font-size="14.00">q9</text>
</g>
<!-- 2&#45;&gt;4 -->
<g id="edge4" class="edge">
<title>2&#45;&gt;4</title>
<path fill="none" stroke="black" d="M172.71,-443.1C180.93,-426.07 192,-398.41 192,-373 192,-373 192,-373 192,-105.5 192,-84.65 184.55,-62.29 177.33,-45.53"/>
<polygon fill="black" stroke="black" points="180.67,-44.42 173.33,-36.77 174.3,-47.32 180.67,-44.42"/>
<text text-anchor="middle" x="195" y="-234.2" font-family="Times,serif" font-size="14.00">ε</text>
</g>
<!-- 5 -->
<g id="node6" class="node">
<title>5</title>
<ellipse fill="none" stroke="black" cx="27" cy="-283.5" rx="27" ry="18"/>
<text text-anchor="middle" x="27" y="-278.45" font-family="Times,serif" font-size="14.00">q4</text>
</g>
<!-- 3&#45;&gt;5 -->
<g id="edge5" class="edge">
<title>3&#45;&gt;5</title>
<path fill="none" stroke="black" d="M118.12,-357.48C100.53,-343.39 72.74,-321.14 52.48,-304.9"/>
<polygon fill="black" stroke="black" points="54.93,-302.39 44.94,-298.87 50.56,-307.85 54.93,-302.39"/>
<text text-anchor="middle" x="94" y="-322.7" font-family="Times,serif" font-size="14.00">ε</text>
</g>
<!-- 6 -->
<g id="node7" class="node">
<title>6</title>
<ellipse fill="none" stroke="black" cx="99" cy="-283.5" rx="27" ry="18"/>
<text text-anchor="middle" x="99" y="-278.45" font-family="Times,serif" font-size="14.00">q6</text>
</g>
<!-- 3&#45;&gt;6 -->
<g id="edge6" class="edge">
<title>3&#45;&gt;6</title>
<path fill="none" stroke="black" d="M128.06,-354.32C123.03,-342.24 116.12,-325.63 110.3,-311.64"/>
<polygon fill="black" stroke="black" points="113.58,-310.41 106.5,-302.52 107.11,-313.1 113.58,-310.41"/>
<text text-anchor="middle" x="124" y="-322.7" font-family="Times,serif" font-size="14.00">ε</text>
</g>
<!-- 7 -->
<g id="node8" class="node">
<title>7</title>
<ellipse fill="none" stroke="black" cx="27" cy="-195" rx="27" ry="18"/>
<text text-anchor="middle" x="27" y="-189.95" font-family="Times,serif" font-size="14.00">q5</text>
</g>
<!-- 5&#45;&gt;7 -->
<g id="edge7" class="edge">
<title>5&#45;&gt;7</title>
<path fill="none" stroke="black" d="M27,-265.41C27,-253.76 27,-238.05 27,-224.52"/>
<polygon fill="black" stroke="black" points="30.5,-224.86 27,-214.86 23.5,-224.86 30.5,-224.86"/>
<text text-anchor="middle" x="30.38" y="-234.2" font-family="Times,serif" font-size="14.00">b</text>
</g>
<!-- 8 -->
<g id="node9" class="node">
<title>8</title>
<ellipse fill="none" stroke="black" cx="99" cy="-195" rx="27" ry="18"/>
<text text-anchor="middle" x="99" y="-189.95" font-family="Times,serif" font-size="14.00">q7</text>
</g>
<!-- 6&#45;&gt;8 -->
<g id="edge8" class="edge">
<title>6&#45;&gt;8</title>
<path fill="none" stroke="black" d="M99,-265.41C99,-253.76 99,-238.05 99,-224.52"/>
<polygon fill="black" stroke="black" points="102.5,-224.86 99,-214.86 95.5,-224.86 102.5,-224.86"/>
<text text-anchor="middle" x="102" y="-234.2" font-family="Times,serif" font-size="14.00">c</text>
</g>
<!-- 9 -->
<g id="node10" class="node">
<title>9</title>
<ellipse fill="none" stroke="black" cx="127" cy="-106.5" rx="27" ry="18"/>
<text text-anchor="middle" x="127" y="-101.45" font-family="Times,serif" font-size="14.00">q8</text>
</g>
<!-- 7&#45;&gt;9 -->
<g id="edge9" class="edge">
<title>7&#45;&gt;9</title>
<path fill="none" stroke="black" d="M43.07,-180.1C59.1,-166.23 83.96,-144.73 102.46,-128.72"/>
<polygon fill="black" stroke="black" points="104.56,-131.54 109.83,-122.35 99.98,-126.25 104.56,-131.54"/>
<text text-anchor="middle" x="89" y="-145.7" font-family="Times,serif" font-size="14.00">ε</text>
</g>
<!-- 8&#45;&gt;9 -->
<g id="edge10" class="edge">
<title>8&#45;&gt;9</title>
<path fill="none" stroke="black" d="M104.53,-176.91C108.37,-165.06 113.56,-149.02 117.99,-135.34"/>
<polygon fill="black" stroke="black" points="121.26,-136.59 121.01,-125.99 114.6,-134.43 121.26,-136.59"/>
<text text-anchor="middle" x="119" y="-145.7" font-family="Times,serif" font-size="14.00">ε</text>
</g>
<!-- 9&#45;&gt;3 -->
<g id="edge11" class="edge">
<title>9&#45;&gt;3</title>
<path fill="none" stroke="black" d="M129.56,-124.88C131.49,-138.91 133.98,-159.18 135,-177 138.37,-235.71 137.14,-304.58 136.02,-342.44"/>
<polygon fill="black" stroke="black" points="132.53,-341.97 135.72,-352.08 139.53,-342.19 132.53,-341.97"/>
<text text-anchor="middle" x="141" y="-234.2" font-family="Times,serif" font-size="14.00">ε</text>
</g>
<!-- 9&#45;&gt;4 -->
<g id="edge12" class="edge">
<title>9&#45;&gt;4</title>
<path fill="none" stroke="black" d="M134.13,-88.82C139.3,-76.74 146.41,-60.13 152.39,-46.14"/>
<polygon fill="black" stroke="black" points="155.58,-47.59 156.29,-37.02 149.14,-44.84 155.58,-47.59"/>
<text text-anchor="middle" x="152" y="-57.2" font-family="Times,serif" font-size="14.00">ε</text>
</g>
</g>
</svg>
